<svg xmlns="http://www.w3.org/2000/svg" width="10" height="10" viewBox="0 0 10 10"><g><g><path fill="#ff6760" d="M9 5a1 1 0 0 1-1-1V3c0-.405.244-.75.59-.907l-.717.062c-.08-.349-.262-.694-.669-.672-.81.046-3.96-.135-4.5.046-.408.136-.55.474-.634 1.136l-.135.012A.983.983 0 0 1 2 3v1a1 1 0 1 1-2 0V3c0-.055.023-.103.032-.156v-.003a.98.98 0 0 1 .087-.29C.543 1.22 2.513.262 3.076.12c.604-.15 1.395-.169 2.299-.183.571-.01.46.136 1.517.1C7.949-.002 10 1.968 10 1.968l-.805.07A.986.986 0 0 1 10 3v1a1 1 0 0 1-1 1zM.704 8.06c.802-.963 2.146-2.502 3.108-3.21 1.33-.977 2.186-.094 5.342 3.181.437.07.768.41.822.852l.054.056h-.042c.001.021.012.04.012.061a1 1 0 0 1-1 1H1a1 1 0 0 1-1-1c0-.447.299-.812.704-.94zm4.171.527a1.306 1.306 0 1 0 0-2.611 1.306 1.306 0 0 0 0 2.611z"/></g></g></svg>